<svg width="102" height="32" viewBox="0 0 102 32" fill="none" xmlns="http://www.w3.org/2000/svg">
<g clip-path="url(#clip0_6_370)">
<path d="M63.2647 24.658C57.3445 29.0217 48.7633 31.3499 41.3751 31.3499C31.0158 31.3499 21.6896 27.5184 14.634 21.1457C14.0797 20.6446 14.5763 19.9616 15.2415 20.3518C22.856 24.7822 32.2707 27.4473 41.9959 27.4473C48.5549 27.4473 55.7702 26.0904 62.4044 23.2743C63.4066 22.8486 64.2448 23.9306 63.2647 24.658Z" fill="#FFBD00"/>
<path d="M65.726 21.8419C64.9721 20.8752 60.7236 21.3852 58.8168 21.6114C58.2359 21.6824 58.1471 21.1768 58.6704 20.8131C62.054 18.4318 67.6063 19.1191 68.2537 19.9173C68.9012 20.7201 68.0852 26.2856 64.9056 28.942C64.4178 29.35 63.9521 29.1326 64.1695 28.5915C64.8835 26.8088 66.4843 22.8132 65.726 21.8419Z" fill="#FFBD00"/>
<path d="M58.9498 4.00121V1.6863C58.9498 1.33596 59.2158 1.10092 59.5352 1.10092H69.8991C70.2317 1.10092 70.4978 1.3404 70.4978 1.6863V3.6686C70.4934 4.00121 70.2139 4.4358 69.7173 5.12318L64.3468 12.7908C66.3425 12.742 68.449 13.0391 70.2582 14.0591C70.6662 14.2897 70.7772 14.6267 70.8082 14.9593V17.4295C70.8082 17.7665 70.4357 18.1611 70.0454 17.9571C66.8569 16.2853 62.6218 16.1035 59.0961 17.9749C58.737 18.1701 58.3599 17.7798 58.3599 17.4428V15.0968C58.3599 14.7199 58.3645 14.0768 58.7414 13.5048L64.9632 4.58216H59.5486C59.2158 4.58216 58.9498 4.34712 58.9498 4.00121Z" fill="#FFBD00"/>
<path d="M21.1441 18.4449H17.9911C17.6895 18.4228 17.45 18.1966 17.4278 17.9084V1.72619C17.4278 1.40246 17.6983 1.14524 18.0354 1.14524H20.9756C21.2815 1.15854 21.5254 1.39359 21.5477 1.68628V3.80163H21.6052C22.3725 1.75723 23.8137 0.803772 25.7561 0.803772C27.7296 0.803772 28.9624 1.75723 29.8493 3.80163C30.6122 1.75723 32.3462 0.803772 34.2042 0.803772C35.5258 0.803772 36.9715 1.34924 37.854 2.57322C38.8519 3.93467 38.6479 5.91254 38.6479 7.64651L38.6433 17.8597C38.6433 18.1833 38.3728 18.4449 38.0359 18.4449H34.8872C34.5723 18.4228 34.3195 18.1701 34.3195 17.8597V9.28291C34.3195 8.59996 34.3816 6.89704 34.2309 6.24958C33.9958 5.16307 33.2907 4.85709 32.3771 4.85709C31.6144 4.85709 30.8162 5.36707 30.4924 6.18305C30.1687 6.99904 30.1998 8.36492 30.1998 9.28291V17.8597C30.1998 18.1833 29.9291 18.4449 29.5922 18.4449H26.4435C26.1242 18.4228 25.8759 18.1701 25.8759 17.8597L25.8715 9.28291C25.8715 7.47798 26.1685 4.8216 23.9291 4.8216C21.6629 4.8216 21.7515 7.41147 21.7515 9.28291V17.8597C21.7515 18.1833 21.4811 18.4449 21.1441 18.4449Z" fill="#FFBD00"/>
<path d="M79.4203 0.803772C84.0989 0.803772 86.6312 4.8216 86.6312 9.93036C86.6312 14.8662 83.8328 18.7821 79.4203 18.7821C74.8261 18.7821 72.3248 14.7642 72.3248 9.75742C72.3248 4.7196 74.857 0.803772 79.4203 0.803772ZM79.447 4.10761C77.1232 4.10761 76.9769 7.27398 76.9769 9.24743C76.9769 11.2253 76.9457 15.4471 79.4203 15.4471C81.8639 15.4471 81.9791 12.0413 81.9791 9.96585C81.9791 8.59996 81.9216 6.968 81.509 5.67307C81.1543 4.54665 80.4493 4.10761 79.447 4.10761Z" fill="#FFBD00"/>
<path d="M92.6979 18.4449H89.558C89.2432 18.4228 88.9904 18.1701 88.9904 17.8597L88.986 1.67297C89.0127 1.37585 89.2742 1.14524 89.5936 1.14524H92.516C92.7909 1.15854 93.0171 1.34481 93.0792 1.59758V4.07214H93.1368C94.0193 1.85923 95.2567 0.803772 97.434 0.803772C98.8487 0.803772 100.228 1.31376 101.115 2.71069C101.94 4.00561 101.94 6.18305 101.94 7.74849V17.9349C101.904 18.2188 101.643 18.4449 101.332 18.4449H98.1702C97.882 18.4228 97.6424 18.21 97.6115 17.9349V9.14544C97.6115 7.37598 97.8155 4.78613 95.6379 4.78613C94.8708 4.78613 94.1656 5.30056 93.8153 6.08105C93.372 7.07 93.3143 8.05449 93.3143 9.14544V17.8597C93.3099 18.1833 93.0348 18.4449 92.6979 18.4449Z" fill="#FFBD00"/>
<path d="M9.35226 10.7153V10.0324C7.07282 10.0324 4.66479 10.5202 4.66479 13.2076C4.66479 14.5691 5.36991 15.4915 6.58058 15.4915C7.46751 15.4915 8.26132 14.946 8.76245 14.0591C9.3833 12.9682 9.35226 11.9438 9.35226 10.7153ZM12.5319 18.4006C12.3235 18.5869 12.0219 18.6002 11.7869 18.4761C10.7403 17.6068 10.5541 17.2033 9.97756 16.374C8.24802 18.139 7.02405 18.6667 4.78009 18.6667C2.12814 18.6667 0.0615845 17.0303 0.0615845 13.7531C0.0615845 11.1943 1.44964 9.45145 3.42308 8.59999C5.13487 7.84609 7.52517 7.71305 9.35226 7.50462V7.09663C9.35226 6.34716 9.40991 5.46024 8.97088 4.81276C8.58506 4.23182 7.8489 3.99235 7.20143 3.99235C5.99964 3.99235 4.92644 4.60876 4.66479 5.88596C4.61158 6.16979 4.40315 6.44916 4.11932 6.46248L1.05939 6.1343C0.802177 6.07665 0.518356 5.86822 0.589311 5.47353C1.29443 1.76613 4.64262 0.64859 7.64047 0.64859C9.17487 0.64859 11.1793 1.05658 12.39 2.21847C13.9244 3.65088 13.7781 5.56224 13.7781 7.64211V12.5557C13.7781 14.0325 14.3901 14.68 14.9666 15.4782C15.1706 15.762 15.2149 16.1035 14.9577 16.3164C14.3147 16.853 13.1705 17.8507 12.5408 18.4096L12.5319 18.4006Z" fill="#FFBD00"/>
<path d="M50.2259 10.7153V10.0324C47.9466 10.0324 45.5385 10.5202 45.5385 13.2076C45.5385 14.5691 46.2437 15.4915 47.4543 15.4915C48.3412 15.4915 49.1351 14.946 49.6361 14.0591C50.2571 12.9682 50.2259 11.9438 50.2259 10.7153ZM53.4057 18.4006C53.1973 18.5869 52.8957 18.6002 52.6606 18.4761C51.614 17.6068 51.4278 17.2033 50.8513 16.374C49.1217 18.139 47.8977 18.6667 45.6539 18.6667C43.0019 18.6667 40.9353 17.0303 40.9353 13.7531C40.9353 11.1943 42.3234 9.45145 44.2967 8.59999C46.0086 7.84609 48.3989 7.71305 50.2259 7.50462V7.09663C50.2259 6.34716 50.2836 5.46024 49.8447 4.81276C49.4588 4.23182 48.7227 3.99235 48.0751 3.99235C46.8733 3.99235 45.8002 4.60876 45.5385 5.88596C45.4852 6.16979 45.2768 6.44916 44.993 6.46248L41.9331 6.1343C41.6759 6.07665 41.392 5.86822 41.4631 5.47353C42.1681 1.76613 45.5163 0.64859 48.5143 0.64859C50.0487 0.64859 52.0531 1.05658 53.2638 2.21847C54.7982 3.65088 54.6518 5.56224 54.6518 7.64211V12.5557C54.6518 14.0325 55.2638 14.68 55.8403 15.4782C56.0443 15.762 56.0886 16.1035 55.8314 16.3164C55.1884 16.853 54.0442 17.8507 53.4145 18.4096L53.4057 18.4006Z" fill="#FFBD00"/>
</g>
<defs>
<clipPath id="clip0_6_370">
<rect width="102" height="30.7861" fill="white" transform="translate(0 0.606964)"/>
</clipPath>
</defs>
</svg>
