<svg width="94" height="34" viewBox="0 0 94 34" fill="none" xmlns="http://www.w3.org/2000/svg">
<path d="M21.8743 17.4057C21.8375 13.3207 25.1839 11.3579 25.3347 11.2615C23.4519 8.48246 20.5247 8.10401 19.4803 8.05948C16.9908 7.80347 14.6189 9.53989 13.3539 9.53989C12.0889 9.53989 10.1399 8.09659 8.0732 8.1374C5.35564 8.17821 2.85137 9.72912 1.4503 12.1853C-1.37023 17.12 0.729535 24.4404 3.48019 28.4513C4.8261 30.4103 6.42575 32.6179 8.53287 32.5363C10.5628 32.4547 11.3277 31.2117 13.7768 31.2117C16.2259 31.2117 16.9172 32.5363 19.0575 32.4955C21.2381 32.451 22.6208 30.4919 23.9557 28.5255C25.4965 26.2511 26.1327 24.0471 26.1694 23.9321C26.1216 23.9136 21.9184 22.2885 21.8743 17.4057Z" fill="#161613"/>
<path d="M17.8478 5.40693C18.9651 4.04156 19.7189 2.14114 19.5131 0.249664C17.9027 0.31677 15.9536 1.3323 14.799 2.69856C13.7658 3.90466 12.848 5.8373 13.1034 7.69298C14.8947 7.83435 16.7304 6.76872 17.8478 5.40782" fill="#161613"/>
<path d="M35.9914 21.4236L34.1292 27.0891H31.7561L37.82 9.078H40.6001L46.6897 27.0891H44.2244L42.316 21.4236H35.9914ZM41.846 19.6055L40.099 14.4223C39.7018 13.2457 39.4375 12.1765 39.1723 11.135H39.1209L38.2208 14.4053L36.4738 19.6144L41.846 19.6055Z" fill="#161613"/>
<path d="M48.4942 18.3779L48.3878 14.1547H50.4806L50.5871 16.3736H50.6385C51.5909 14.7971 53.102 13.8621 55.1948 13.8621C58.2951 13.8621 60.622 16.5079 60.622 20.4367C60.622 25.0857 57.8162 27.3825 54.7958 27.3825C53.1002 27.3825 51.6184 26.6327 50.8496 25.3532H50.7981V32.3894H48.4925L48.4942 18.3779ZM50.7963 21.8244C50.7963 22.1823 50.8478 22.4919 50.9028 22.7853C51.3258 24.4138 52.7296 25.5384 54.4003 25.5384C56.8638 25.5384 58.3022 23.5092 58.3022 20.5404C58.3022 17.9457 56.9525 15.7321 54.489 15.7321C52.8927 15.7321 51.418 16.8828 50.9657 18.6445C50.8681 18.9556 50.815 19.2792 50.8079 19.6054V21.8244H50.7963ZM63.0314 18.3779L62.925 14.1547H65.0178L65.1243 16.3736H65.1757C66.1281 14.7971 67.6392 13.8621 69.732 13.8621C72.8323 13.8621 75.1592 16.5079 75.1592 20.4367C75.1592 25.0857 72.3534 27.3825 69.333 27.3825C67.6374 27.3825 66.1556 26.6327 65.3867 25.3532H65.3353V32.3894H63.0296L63.0314 18.3779ZM65.3371 21.8244C65.3371 22.1823 65.3885 22.4919 65.4435 22.7853C65.8665 24.4138 67.2703 25.5384 68.941 25.5384C71.4045 25.5384 72.8429 23.5092 72.8429 20.5404C72.8429 17.9457 71.4932 15.7321 69.0297 15.7321C67.4335 15.7321 65.9587 16.8828 65.5065 18.6445C65.4089 18.9556 65.3557 19.2792 65.3486 19.6054V21.8244H65.3371ZM77.5713 8.1188H79.9035V27.0899H77.5713V8.1188ZM84.5876 21.0495C84.639 24.2294 86.6538 25.5393 88.9816 25.5393C90.6515 25.5393 91.6553 25.2459 92.5306 24.8719L92.9279 26.5567C92.1076 26.9324 90.7109 27.3583 88.6659 27.3583C84.7197 27.3583 82.3626 24.7385 82.3626 20.8393C82.3626 16.94 84.639 13.8639 88.3751 13.8639C92.5607 13.8639 93.6692 17.5771 93.6692 19.9481C93.6692 20.4313 93.6178 20.8017 93.5805 21.0424L84.5876 21.0495ZM91.4203 19.3648C91.4469 17.8705 90.8102 15.5442 88.188 15.5442C85.8309 15.5442 84.7977 17.7363 84.6142 19.3648H91.4203Z" fill="#161613"/>
</svg>
