<svg width="48" height="30" viewBox="0 0 48 30" fill="none" xmlns="http://www.w3.org/2000/svg">
<path d="M0 1.31314V13.431H6.34133C8.83724 13.431 11.1438 12.5545 11.1438 9.97995C11.1438 8.23948 9.89059 7.44497 8.51224 7.02909C9.35203 6.69206 10.3047 5.98403 10.3047 4.49978C10.3047 2.60008 8.42076 1.31314 5.8843 1.31314H0ZM3.88478 4.13539H5.31301C5.89442 4.13539 6.33776 4.59105 6.33776 5.05352C6.33776 5.48319 5.87709 5.94306 5.31301 5.94306H3.88478V4.13539ZM3.88478 8.45808H5.77004C6.42818 8.45808 6.98047 8.9582 6.98047 9.52982C6.98047 10.1368 6.46393 10.6409 5.65578 10.6409H3.88478V8.45808Z" fill="#00A1FF"/>
<path d="M3.14255 14.752V26.8699H9.48388C11.9798 26.8699 14.2863 25.9934 14.2863 23.4189C14.2863 21.6784 13.0331 20.8839 11.6548 20.468C12.4946 20.131 13.4472 19.4229 13.4472 17.9387C13.4472 16.039 11.5633 14.752 9.02685 14.752H3.14255ZM7.02733 17.5743H8.45556C9.03697 17.5743 9.48031 18.03 9.48031 18.4924C9.48031 18.9221 9.01963 19.382 8.45556 19.382H7.02733V17.5743ZM7.02733 21.897H8.91259C9.57073 21.897 10.123 22.3971 10.123 22.9687C10.123 23.5757 9.60648 24.0798 8.79833 24.0798H7.02733V21.897Z" fill="#00A1FF"/>
<path d="M11.449 13.4292V1.31134H21.2181V4.23791H15.3223V5.82694H20.1098V8.5706H15.3223V10.514H21.2181V13.4292H11.449Z" fill="#00A1FF"/>
<path d="M26.5114 13.7758C29.2612 13.7758 31.4607 12.2064 31.4607 9.66329C31.4607 5.55897 26.1242 6.19055 26.1242 4.91266C26.1242 4.41904 26.643 4.15709 27.1751 4.15709C28.0921 4.15709 28.7547 4.76154 28.7547 4.76154L31.0506 2.57431C30.1323 1.69993 28.682 0.964813 26.7283 0.964813C23.7942 0.964813 21.8746 2.70719 21.8746 4.809C21.8746 8.96552 27.1342 8.36225 27.1342 9.66644C27.1342 10.1236 26.6946 10.5835 25.8973 10.5835C24.9921 10.5835 24.275 10.0368 23.7169 9.57288L21.4075 11.7757C22.3374 12.682 23.8303 13.7758 26.5114 13.7758Z" fill="#00A1FF"/>
<path d="M34.4505 13.4292V4.22648H31.2513V1.31134H41.5345V4.22648H38.3353V13.4292H34.4505Z" fill="#00A1FF"/>
<path d="M14.4207 14.7432H18.2941V22.0025C18.2941 22.7396 19.0274 23.4189 19.7918 23.4189C20.513 23.4189 21.242 22.8055 21.242 21.9637V14.7432H25.1039V21.9143C25.1039 24.7598 22.7426 27.0297 19.6895 27.0297C16.6189 27.0297 14.4207 24.5594 14.4207 21.7593V14.7432Z" fill="#00A1FF"/>
<path d="M29.8765 26.861V22.531L25.324 14.7432H29.2429L31.8189 18.9158L34.4038 14.7432H38.3316L33.7613 22.5755V26.861H29.8765Z" fill="#00A1FF"/>
<path d="M38.3339 21.376L36.0488 23.6624V26.749L38.3339 29.0354H48.0002V21.376H38.3339Z" fill="#00A1FF"/>
<path d="M37.9567 25.2037C37.9567 25.4879 37.7265 25.7182 37.4426 25.7182C37.1586 25.7182 36.9284 25.4879 36.9284 25.2037C36.9284 24.9196 37.1586 24.6893 37.4426 24.6893C37.7265 24.6893 37.9567 24.9196 37.9567 25.2037Z" fill="#00A1FF"/>
</svg>
