<svg width="106" height="30" viewBox="0 0 106 30" fill="none" xmlns="http://www.w3.org/2000/svg">
<g clip-path="url(#clip0_6_393)">
<path d="M14.9378 27.3461C13.3583 27.6235 11.751 27.7066 10.0883 27.9281L5.01695 13.0747V28.5656C3.43744 28.7318 1.99646 28.9535 0.5 29.1752V0.79834H4.71231L10.4762 16.8991V0.79834H14.9378V27.3461ZM23.6671 11.1903C25.3853 11.1903 28.0179 11.1071 29.5974 11.1071V15.5409C27.6298 15.5409 25.3298 15.5409 23.6671 15.6241V22.2196C26.2721 22.0534 28.877 21.8315 31.5095 21.7483V26.0157L19.2331 26.9858V0.79834H31.5095V5.23223H23.6671V11.1903ZM47.9979 5.23233H43.3978V25.6282C41.9014 25.6282 40.4049 25.6282 38.9641 25.6834V5.23233H34.364V0.79834H47.9981L47.9979 5.23233ZM55.2029 10.8855H61.2719V15.3193H55.2029V25.3788H50.8519V0.79834H63.2394V5.23223H55.2029V10.8855ZM70.4445 21.499C72.9663 21.5543 75.5156 21.7486 77.9821 21.8869V26.2655C74.0194 26.0159 70.0566 25.7668 66.0107 25.6834V0.79834H70.4445V21.499ZM81.7231 26.5703C83.1364 26.6536 84.6329 26.7367 86.0739 26.9027V0.79834H81.7231V26.5703ZM105.5 0.79834L99.8744 14.294L105.5 29.1752C103.837 28.9535 102.174 28.6487 100.512 28.3715L97.325 20.169L94.083 27.7066C92.4754 27.4293 90.9236 27.3461 89.3166 27.1244L95.0251 14.1276L89.8706 0.79834H94.6368L97.5466 8.25283L100.65 0.79834H105.5Z" fill="#FF3A44"/>
</g>
<defs>
<clipPath id="clip0_6_393">
<rect width="105" height="28.4033" fill="white" transform="translate(0.5 0.79834)"/>
</clipPath>
</defs>
</svg>
