<svg width="20" height="20" viewBox="0 0 20 20" fill="none" xmlns="http://www.w3.org/2000/svg">
<path d="M13.3336 7.50002V5.00002C13.3336 3.15907 11.8412 1.66669 10.0003 1.66669C8.15932 1.66669 6.66693 3.15907 6.66693 5.00002V7.50002M2.9936 8.62666L2.4936 13.96C2.35144 15.4764 2.28036 16.2346 2.53198 16.8202C2.75302 17.3347 3.14037 17.7601 3.63195 18.0282C4.19154 18.3334 4.95307 18.3334 6.47614 18.3334H13.5244C15.0475 18.3334 15.809 18.3334 16.3686 18.0282C16.8602 17.7601 17.2475 17.3347 17.4686 16.8202C17.7202 16.2346 17.6491 15.4764 17.5069 13.96L17.0069 8.62666C16.8869 7.34614 16.8269 6.70588 16.5389 6.22182C16.2853 5.79551 15.9105 5.45428 15.4624 5.24156C14.9536 5.00002 14.3105 5.00002 13.0244 5.00002L6.97614 5.00002C5.69001 5.00002 5.04694 5.00002 4.53812 5.24156C4.08999 5.45428 3.71527 5.79551 3.46165 6.22182C3.17368 6.70588 3.11365 7.34614 2.9936 8.62666Z" stroke="#C11574" stroke-width="1.66667" stroke-linecap="round" stroke-linejoin="round"/>
</svg>
