<svg width="100" height="32" viewBox="0 0 100 32" fill="none" xmlns="http://www.w3.org/2000/svg">
<g clip-path="url(#clip0_6_357)">
<path fill-rule="evenodd" clip-rule="evenodd" d="M77.9334 7.38343C77.4943 7.38322 77.0731 7.55758 76.7625 7.86817C76.4519 8.17874 76.2772 8.60011 76.277 9.03954C76.2768 9.47899 76.4511 9.90049 76.7613 10.2114C77.0717 10.5223 77.4927 10.697 77.9318 10.6972C78.3711 10.6972 78.7923 10.5226 79.1031 10.2117C79.4136 9.90082 79.5882 9.47919 79.5882 9.03954C79.5882 8.59988 79.4136 8.17825 79.1031 7.86738C78.7923 7.55648 78.3711 7.38184 77.9318 7.38184L77.9334 7.38343ZM79.0745 11.9729H76.7666C76.722 11.9733 76.6792 11.9914 76.6477 12.0232C76.6161 12.0551 76.5984 12.0981 76.5984 12.1429V22.224C76.5984 22.3193 76.6731 22.3941 76.7666 22.3941H79.0762C79.1212 22.3941 79.1644 22.3762 79.1963 22.3442C79.2281 22.3124 79.246 22.2692 79.246 22.224V12.1429C79.246 12.0978 79.2281 12.0545 79.1963 12.0227C79.1644 11.9908 79.1212 11.9729 79.0762 11.9729H79.0745ZM84.2079 11.9824V11.6647C84.2079 10.7242 84.5682 10.3049 85.3762 10.3049C85.8572 10.3049 86.243 10.4002 86.6778 10.5463C86.7033 10.555 86.7305 10.5574 86.7572 10.5533C86.7839 10.5492 86.8092 10.5388 86.831 10.5229C86.8525 10.5071 86.8703 10.4862 86.8823 10.462C86.8943 10.4379 86.9004 10.4112 86.9 10.3843V8.43825C86.8998 8.40188 86.8882 8.36652 86.8664 8.33736C86.8446 8.30819 86.8143 8.28675 86.7794 8.27622C86.1572 8.08597 85.5094 7.99274 84.8587 7.9998C82.7271 7.9998 81.6 9.20237 81.6 11.4756V11.9649H80.4904C80.4458 11.9649 80.4028 11.9826 80.3709 12.0142C80.3391 12.0457 80.3212 12.0885 80.3206 12.1333V14.1302C80.3206 14.2239 80.3969 14.3002 80.4904 14.3002H81.6V22.2273C81.6 22.3193 81.6745 22.3957 81.7682 22.3957H84.0778C84.1226 22.3953 84.1654 22.3772 84.1969 22.3454C84.2283 22.3134 84.246 22.2705 84.246 22.2256V14.2986H86.4016L89.7049 22.2256C89.3301 23.0566 88.9619 23.2234 88.4587 23.2234C88.0509 23.2234 87.6222 23.101 87.1841 22.8611C87.1639 22.8503 87.1417 22.8436 87.1187 22.8413C87.0959 22.8391 87.0727 22.8415 87.0507 22.8485C87.0287 22.856 87.0084 22.868 86.991 22.8839C86.9739 22.8998 86.9601 22.9191 86.9507 22.9405L86.1682 24.6578C86.1501 24.6965 86.1473 24.7409 86.1607 24.7817C86.1739 24.8224 86.2022 24.8564 86.2397 24.877C87.0572 25.3204 87.7953 25.5094 88.7063 25.5094C90.4112 25.5094 91.354 24.7151 92.1841 22.5751L96.1904 12.2143C96.201 12.1887 96.2049 12.1608 96.202 12.1332C96.1992 12.1057 96.1894 12.0792 96.1739 12.0563C96.1584 12.0333 96.1375 12.0146 96.1128 12.0017C96.0884 11.9888 96.0611 11.9822 96.0334 11.9824H93.6301C93.5951 11.9828 93.5611 11.994 93.5328 12.0144C93.5043 12.0349 93.4829 12.0637 93.4715 12.0968L91.0079 19.1359L88.3096 12.092C88.2976 12.0599 88.2762 12.0322 88.2481 12.0127C88.22 11.9931 88.1866 11.9825 88.1523 11.9824H84.2079ZM75.3556 11.9729H72.8159V9.37235C72.8159 9.35011 72.8114 9.32807 72.8028 9.30754C72.7943 9.28701 72.7819 9.26838 72.766 9.25272C72.7503 9.23705 72.7316 9.22469 72.711 9.21632C72.6904 9.20795 72.6682 9.20375 72.646 9.20396H70.3365C70.2921 9.20436 70.2495 9.22225 70.2179 9.25373C70.1866 9.28522 70.1686 9.32783 70.1682 9.37235V11.9729H69.0572C69.035 11.9729 69.0128 11.9773 68.9925 11.9859C68.9719 11.9944 68.9534 12.007 68.9377 12.0228C68.922 12.0386 68.9096 12.0573 68.9012 12.0779C68.8929 12.0985 68.8888 12.1206 68.889 12.1429V14.1286C68.889 14.2223 68.9652 14.2986 69.0572 14.2986H70.1682V19.4361C70.1682 21.514 71.2 22.5656 73.2381 22.5656C74.0666 22.5656 74.7523 22.3957 75.4 22.0287C75.4263 22.014 75.4479 21.9925 75.4629 21.9666C75.478 21.9405 75.4859 21.911 75.4857 21.881V19.9905C75.4862 19.9615 75.479 19.9329 75.4652 19.9075C75.4513 19.882 75.4312 19.8606 75.4065 19.8452C75.3819 19.8299 75.3538 19.8212 75.3248 19.8199C75.2959 19.8186 75.2672 19.8249 75.2413 19.838C74.7969 20.062 74.3666 20.1653 73.8857 20.1653C73.1444 20.1653 72.8143 19.8301 72.8143 19.0755V14.2986H75.354C75.3764 14.2988 75.3986 14.2945 75.4191 14.2861C75.4399 14.2776 75.4586 14.2651 75.4745 14.2493C75.4904 14.2334 75.5028 14.2146 75.5114 14.1939C75.5198 14.1732 75.524 14.151 75.5238 14.1286V12.1429C75.524 12.1206 75.5198 12.0985 75.5114 12.0779C75.5031 12.0573 75.4908 12.0386 75.4752 12.0228C75.4595 12.007 75.4409 11.9944 75.4204 11.9859C75.3998 11.9773 75.3778 11.9729 75.3556 11.9729ZM63.1794 11.7616C60.0682 11.7616 57.6285 14.1604 57.6285 17.2216C57.6285 20.251 60.0509 22.6228 63.1413 22.6228C66.2635 22.6228 68.7096 20.2336 68.7096 17.1835C68.7096 14.1429 66.2811 11.7616 63.1794 11.7616ZM63.1794 20.2796C61.5238 20.2796 60.2745 18.9484 60.2745 17.1819C60.2745 15.4106 61.4811 14.1254 63.1413 14.1254C64.8079 14.1254 66.0619 15.4567 66.0619 17.2232C66.0619 18.9945 64.8509 20.2796 63.1794 20.2796ZM52.046 11.7616C50.7444 11.7616 49.6778 12.2747 48.7984 13.3248V12.1429C48.7984 12.0981 48.7809 12.0551 48.7493 12.0232C48.7177 11.9914 48.6749 11.9733 48.6301 11.9729H46.3206C46.276 11.9733 46.2332 11.9914 46.2016 12.0232C46.1701 12.0551 46.1523 12.0981 46.1523 12.1429V25.2806C46.1523 25.3727 46.2285 25.4489 46.3206 25.4489H48.6301C48.6747 25.4485 48.7173 25.4307 48.7487 25.3992C48.7802 25.3676 48.798 25.325 48.7984 25.2806V21.1344C49.6794 22.1208 50.746 22.6037 52.046 22.6037C54.4619 22.6037 56.9079 20.7419 56.9079 17.1835C56.9079 13.625 54.4635 11.7616 52.046 11.7616ZM54.2238 17.1835C54.2238 18.9945 53.1079 20.2606 51.5112 20.2606C49.9318 20.2606 48.7413 18.9373 48.7413 17.1835C48.7413 15.4297 49.9318 14.1064 51.5112 14.1064C53.0825 14.1064 54.2255 15.3995 54.2255 17.1835H54.2238ZM40.8334 14.3081C38.2556 13.6917 37.7969 13.2596 37.7969 12.3526C37.7969 11.4947 38.6033 10.9181 39.8033 10.9181C40.9652 10.9181 42.1191 11.3549 43.3271 12.2572C43.345 12.2706 43.3654 12.2802 43.3872 12.2855C43.409 12.2909 43.4316 12.2919 43.4536 12.2885C43.4758 12.2851 43.4969 12.2774 43.5161 12.2657C43.5352 12.2541 43.5519 12.2388 43.5652 12.2207L44.8255 10.4431C44.8499 10.4079 44.8603 10.3649 44.8544 10.3224C44.8485 10.28 44.8267 10.2414 44.7937 10.2143C43.3556 9.05781 41.735 8.49703 39.8413 8.49703C37.0556 8.49703 35.1112 10.1682 35.1112 12.5622C35.1112 15.1278 36.789 16.0365 39.689 16.7371C42.1556 17.3058 42.5731 17.7824 42.5731 18.6354C42.5731 19.5791 41.7318 20.1653 40.3745 20.1653C38.8699 20.1653 37.643 19.6569 36.2682 18.4686C36.2338 18.4394 36.1896 18.4246 36.1444 18.4273C36.122 18.4291 36.1002 18.4353 36.0804 18.4457C36.0605 18.4561 36.0428 18.4704 36.0285 18.4877L34.6159 20.1684C34.5872 20.2019 34.5727 20.2455 34.576 20.2896C34.5792 20.3337 34.6 20.3747 34.6334 20.4035C36.1898 21.8149 38.2173 22.5929 40.3175 22.5847C43.3175 22.5847 45.2572 20.9438 45.2572 18.4051C45.2572 16.2589 43.9762 15.0722 40.8334 14.3065V14.3081ZM15.0905 0.598541C11.1291 0.598541 7.32994 2.17349 4.5288 4.97691C1.72766 7.78033 0.153992 11.5826 0.153992 15.5472C0.153992 19.5119 1.72766 23.314 4.5288 26.1175C7.32994 28.921 11.1291 30.4959 15.0905 30.4959C19.0519 30.4959 22.8511 28.921 25.6521 26.1175C28.4534 23.314 30.0271 19.5119 30.0271 15.5472C30.0271 11.5826 28.4534 7.78033 25.6521 4.97691C22.8511 2.17349 19.0519 0.598541 15.0905 0.598541ZM21.9413 22.159C21.8776 22.2637 21.7941 22.3548 21.6951 22.4271C21.5963 22.4992 21.4841 22.5513 21.3652 22.58C21.246 22.6087 21.1226 22.6138 21.0016 22.5947C20.8806 22.5755 20.7648 22.5328 20.6603 22.4688C17.1524 20.3241 12.7397 19.8396 7.53971 21.0279C7.42057 21.0552 7.29725 21.0586 7.17678 21.0381C7.05631 21.0177 6.94106 20.9735 6.8376 20.9085C6.73411 20.8436 6.64446 20.7586 6.57375 20.659C6.50301 20.5593 6.45263 20.4465 6.42542 20.3273C6.39823 20.2081 6.39474 20.0847 6.41519 19.9641C6.43566 19.8435 6.47965 19.7282 6.54464 19.6246C6.60965 19.521 6.6944 19.4313 6.79403 19.3606C6.89369 19.2898 7.00629 19.2393 7.12542 19.2121C12.8143 17.9095 17.6953 18.4702 21.6318 20.8786C22.0699 21.147 22.2079 21.7206 21.9413 22.159ZM23.7666 18.089C23.6051 18.352 23.346 18.5401 23.046 18.6122C22.7462 18.6843 22.4299 18.6344 22.1666 18.4734C18.1524 16.0031 12.0318 15.2883 7.28257 16.7307C6.9936 16.7993 6.68939 16.7551 6.43191 16.607C6.17444 16.4588 5.98309 16.2181 5.89686 15.9337C5.81063 15.6492 5.83603 15.3426 5.96786 15.0763C6.09969 14.81 6.32804 14.604 6.60637 14.5003C12.0318 12.853 18.7746 13.652 23.3841 16.4861C23.5147 16.5661 23.6281 16.6711 23.7181 16.7951C23.8081 16.9191 23.8729 17.0596 23.9086 17.2086C23.9442 17.3576 23.9501 17.5122 23.9261 17.6636C23.902 17.8149 23.8485 17.96 23.7682 18.0906L23.7666 18.089ZM23.9271 13.8506C19.1111 10.9895 11.1683 10.7258 6.57303 12.1238C6.3967 12.1801 6.21094 12.2008 6.02654 12.1846C5.84214 12.1684 5.66279 12.1157 5.49894 12.0296C5.33507 11.9434 5.18994 11.8255 5.07199 11.6827C4.95405 11.54 4.86564 11.3752 4.81189 11.1979C4.75815 11.0206 4.74012 10.8344 4.75892 10.6501C4.7777 10.4658 4.83289 10.2871 4.92128 10.1243C5.00967 9.96157 5.12951 9.81803 5.27383 9.70202C5.41815 9.58601 5.58405 9.49988 5.76193 9.4486C11.0365 7.84412 19.808 8.15548 25.3493 11.4471C25.6678 11.6362 25.8984 11.9443 25.9902 12.3037C26.0819 12.6629 26.0271 13.044 25.8381 13.3629C25.6491 13.6818 25.3411 13.9126 24.9823 14.0043C24.6232 14.0961 24.2426 14.0414 23.9238 13.8522" fill="#15CF74"/>
</g>
<defs>
<clipPath id="clip0_6_357">
<rect width="100" height="31.7719" fill="white" transform="translate(0 0.114044)"/>
</clipPath>
</defs>
</svg>
