<svg width="116" height="36" viewBox="0 0 116 36" fill="none" xmlns="http://www.w3.org/2000/svg">
<path d="M21.5398 23.6814C24.6621 23.6814 27.3205 21.1315 27.3205 17.8836C27.3205 14.7521 24.7781 12.0859 21.5398 12.0859C18.4174 12.0859 15.7591 14.6358 15.7591 17.8836C15.7591 21.0152 18.4174 23.6814 21.5398 23.6814ZM21.5398 29.0157C22.9823 29.016 24.4107 28.7314 25.7435 28.1779C27.0763 27.6245 28.2873 26.8131 29.3073 25.7902C30.3274 24.7672 31.1365 23.5527 31.6884 22.216C32.2403 20.8794 32.5243 19.4467 32.524 18C32.524 11.9696 27.5515 6.98432 21.5408 6.98432C15.53 6.98432 10.5565 11.9696 10.5565 18C10.5565 24.0304 15.5174 29.0157 21.5398 29.0157ZM4.89087 18C4.89087 8.7217 12.4057 1.30197 21.5398 1.30197C30.6738 1.30197 38.1887 8.83804 38.1887 18C38.1887 27.1619 30.6748 34.698 21.5398 34.698C12.4048 34.698 4.89087 27.2783 4.89087 18Z" fill="#FF3A44"/>
<path d="M47.9894 13.5403V25.5574H44.3818V13.5403H40.2677V10.4999H52.177V13.5403H47.9894ZM70.0053 13.5403H66.6848V16.5807H69.6428C70.7254 16.5807 71.4475 16.1463 71.4475 15.0605C71.52 13.9746 70.797 13.5403 70.0033 13.5403H70.0053ZM63.1477 10.4999H70.1493C74.1194 10.4999 74.6965 13.2504 74.6965 14.8433C74.6965 17.1701 72.7477 18.3181 72.5312 18.3917C72.5312 18.3917 74.3359 19.0433 74.3359 20.9978V23.821C74.3359 24.9069 74.9855 25.2685 75.1286 25.5584H72.2412C70.8685 25.413 70.942 24.3271 70.942 23.7483V21.2964C70.8695 20.7166 70.7254 20.0651 69.4987 20.0651H66.6113V25.5671H63.228V10.5105L63.1477 10.4999ZM99.7428 16.2258H93.6074V13.5403H100.825V10.4999H90.0713V25.5565H100.826V22.5161H93.6083V19.1228H99.7438L99.7428 16.2258ZM109.127 25.5662V13.5403H113.53V10.4999H101.331V13.5403H105.59V25.5574L109.127 25.5662ZM55.8562 15.8652L54.6285 19.7743H57.2269L55.8562 15.8652ZM53.8262 10.5086H57.7238L62.9921 25.4944H59.2492L58.1665 22.392H53.7633L52.6807 25.4944H48.9996L53.8262 10.5086ZM88.835 17.1692H82.4105V20.0651H85.5038C85.5038 20.6449 85.5763 21.2237 84.8542 22.1011C84.5642 22.392 83.7715 23.0415 82.6164 23.0415C81.6062 23.0415 80.8841 22.7507 80.2964 22.2465C78.9237 21.088 78.5641 18.989 78.5641 17.7577C78.5641 16.3102 79.1422 12.8345 82.5342 12.69C82.5342 12.69 84.9161 12.5446 85.4922 15.3688H88.7402C88.6677 13.9213 87.0079 9.93948 82.6048 9.93948C81.089 9.93948 79.1403 10.3738 77.4795 12.0385C76.3244 13.1971 75.2417 15.2243 75.2417 17.9748C75.2417 21.0153 76.3244 22.9698 77.3345 24.0566C79.1393 25.9394 80.9431 26.0926 81.8817 26.0926C82.6038 26.0926 84.047 25.9472 85.8518 24.7159L86.2849 25.5846H88.7402L88.835 17.1692Z" fill="#FF3A44"/>
</svg>
