<svg width="88" height="32" viewBox="0 0 88 32" fill="none" xmlns="http://www.w3.org/2000/svg">
<g clip-path="url(#clip0_6_372)">
<path d="M6.60507 20.9897C6.96221 21.9375 7.45668 22.7479 8.08855 23.4209C8.72042 24.094 9.469 24.6091 10.3343 24.9662C11.1997 25.3234 12.1405 25.5019 13.157 25.5019C14.146 25.5019 15.0731 25.3164 15.9385 24.9455C16.8039 24.5746 17.5593 24.0527 18.2049 23.3797C18.8504 22.7066 19.3518 21.9031 19.7089 20.9691C20.0661 20.0351 20.2446 18.9913 20.2446 17.8374V0.0359802H24.5713V28.8808H20.2858V26.2023C19.3243 27.2187 18.1911 28.0016 16.8862 28.5512C15.5813 29.1005 14.1735 29.3753 12.6625 29.3753C11.1241 29.3753 9.68874 29.1074 8.35634 28.5717C7.02403 28.036 5.87016 27.2738 4.89501 26.2847C3.91985 25.2957 3.15057 24.1078 2.58745 22.7204C2.02424 21.3331 1.74268 19.7879 1.74268 18.0846V0.0359802H6.06939V17.8374C6.06939 18.9913 6.24792 20.0419 6.60507 20.9897Z" fill="#161613"/>
<path d="M32.0296 0.0359802V10.5437C32.9911 9.58223 34.1037 8.81997 35.3674 8.25676C36.631 7.69355 38.0046 7.41199 39.488 7.41199C41.0265 7.41199 42.4686 7.70039 43.8148 8.27728C45.1608 8.85417 46.3283 9.63712 47.3173 10.6261C48.3063 11.6152 49.0893 12.7826 49.6662 14.1287C50.2431 15.4748 50.5315 16.9033 50.5315 18.4143C50.5315 19.9251 50.2431 21.3468 49.6662 22.6791C49.0893 24.0115 48.3063 25.1722 47.3173 26.161C46.3283 27.15 45.1608 27.933 43.8148 28.5099C42.4686 29.0868 41.0264 29.3752 39.488 29.3752C38.0046 29.3752 36.6242 29.0936 35.3468 28.5304C34.0694 27.9673 32.9499 27.2049 31.9884 26.2434V28.8807H27.8677V0.0359802H32.0296ZM32.5035 21.2575C32.8743 22.1367 33.3894 22.9058 34.0488 23.5652C34.7081 24.2245 35.4773 24.7465 36.3563 25.1311C37.2355 25.5157 38.1832 25.7079 39.1996 25.7079C40.1887 25.7079 41.1226 25.5157 42.0017 25.1311C42.8807 24.7465 43.643 24.2246 44.2887 23.5652C44.9342 22.9059 45.4493 22.1367 45.8339 21.2575C46.2185 20.3785 46.4108 19.4307 46.4108 18.4143C46.4108 17.3978 46.2185 16.4432 45.8339 15.5503C45.4493 14.6575 44.9342 13.8815 44.2887 13.2222C43.6431 12.563 42.8808 12.0478 42.0017 11.677C41.1225 11.3061 40.1886 11.1206 39.1996 11.1206C38.2107 11.1206 37.2767 11.3061 36.3976 11.677C35.5186 12.0479 34.7494 12.563 34.09 13.2222C33.4307 13.8815 32.9087 14.6575 32.5242 15.5503C32.1396 16.4432 31.9473 17.3978 31.9473 18.4143C31.9472 19.4307 32.1326 20.3785 32.5035 21.2575Z" fill="#161613"/>
<path d="M52.8798 14.17C53.4292 12.8514 54.1848 11.6908 55.1462 10.6881C56.1076 9.68537 57.2478 8.89558 58.5664 8.31869C59.885 7.7418 61.3135 7.4534 62.8519 7.4534C64.3628 7.4534 65.7639 7.72812 67.0551 8.27747C68.3461 8.82692 69.4587 9.58927 70.3927 10.5645C71.3268 11.5397 72.0549 12.6935 72.5767 14.0258C73.0987 15.3582 73.3596 16.8074 73.3596 18.3733V19.7331H56.2588C56.3962 20.5847 56.671 21.3745 57.083 22.1024C57.4951 22.8304 58.0101 23.4622 58.6282 23.9979C59.2463 24.5337 59.9468 24.9526 60.7298 25.2547C61.5127 25.5569 62.3437 25.7081 63.2228 25.7081C65.7227 25.7081 67.7419 24.6778 69.2803 22.6175L72.2884 24.8426C71.2444 26.2436 69.9534 27.3425 68.415 28.1392C66.8765 28.9358 65.1459 29.3342 63.2229 29.3342C61.657 29.3342 60.1942 29.0593 58.8344 28.51C57.4745 27.9606 56.2933 27.1914 55.2906 26.2023C54.2879 25.2133 53.4981 24.0527 52.9212 22.7204C52.3443 21.3881 52.0558 19.9389 52.0558 18.3731C52.0557 16.8897 52.3305 15.4886 52.8798 14.17ZM58.6694 12.5423C57.5019 13.5175 56.7258 14.8155 56.3413 16.4363H69.1566C68.7995 14.8155 68.0371 13.5175 66.8696 12.5423C65.702 11.5671 64.3354 11.0795 62.7696 11.0795C61.2036 11.0795 59.837 11.5671 58.6694 12.5423Z" fill="#161613"/>
<path d="M81.1476 13.0161C80.2685 13.9776 79.8289 15.2825 79.8289 16.9308V28.8809H75.667V7.86535H79.7876V10.4614C80.3096 9.60979 80.9896 8.9367 81.8274 8.44224C82.6652 7.94769 83.6611 7.70041 84.815 7.70041H86.2571V11.5739H84.5265C83.153 11.574 82.0266 12.0547 81.1476 13.0161Z" fill="#161613"/>
</g>
<defs>
<clipPath id="clip0_6_372">
<rect width="87" height="30.2022" fill="white" transform="translate(0.5 0.898895)"/>
</clipPath>
</defs>
</svg>
