<svg width="122" height="36" viewBox="0 0 122 36" fill="none" xmlns="http://www.w3.org/2000/svg">
<path d="M105.724 12.4733C106.501 12.4733 107.174 12.0646 107.226 11.5628L108.003 2.92328C108.003 2.05325 106.978 1.38962 105.724 1.38962C104.429 1.38962 103.444 2.10586 103.444 2.92328L104.221 11.5628C104.273 12.0737 104.947 12.4733 105.724 12.4733ZM100.958 15.1845C101.372 14.5199 101.321 13.7531 100.907 13.4465L93.7065 8.48738C92.9808 8.07867 91.8411 8.58859 91.22 9.66297C90.5989 10.7373 90.7024 11.9635 91.427 12.3722L99.4041 16.0546C99.9217 16.2084 100.595 15.8502 100.958 15.1845ZM110.439 15.1835C110.853 15.8482 111.525 16.1952 111.992 15.9928L119.969 12.3104C120.695 11.9017 120.851 10.6746 120.177 9.60122C119.555 8.52887 118.416 8.01597 117.69 8.42569L110.49 13.3848C110.076 13.7429 110.023 14.5098 110.439 15.1754M105.724 23.2515C106.501 23.2515 107.174 23.6602 107.226 24.162L108.003 32.8015C108.003 33.6715 106.978 34.3352 105.724 34.3352C104.429 34.3352 103.444 33.6189 103.444 32.8015L104.221 24.162C104.273 23.6511 104.947 23.2515 105.724 23.2515ZM110.439 20.5504C110.853 19.8857 111.525 19.5387 111.992 19.741L119.969 23.3709C120.695 23.7796 120.851 25.0067 120.177 26.0801C119.555 27.1524 118.416 27.6653 117.69 27.2556L110.49 22.2965C110.076 21.99 110.023 21.2241 110.439 20.5584M100.958 20.5605C101.372 21.2251 101.321 21.992 100.907 22.2985L93.7065 27.2576C92.9808 27.6663 91.8411 27.1565 91.22 26.0821C90.5989 25.0077 90.7024 23.7816 91.427 23.3729L99.4041 19.7431C99.9217 19.5387 100.595 19.8968 100.958 20.5524" fill="#FFE000"/>
<path d="M67.6991 21.4851C67.6991 21.6995 67.6992 21.9565 67.612 22.1275C67.3517 22.9409 66.4846 23.6692 65.4002 23.6692C64.4778 23.6692 63.7521 23.1553 63.7521 22.085C63.7521 20.4158 65.6175 19.9868 67.6981 19.9868L67.6991 21.4851ZM70.9953 18.616C70.9953 15.8846 69.8238 13.4768 65.8338 13.4768C63.7839 13.4768 62.1471 14.0333 61.2789 14.5472L61.9298 16.7303C62.7538 16.2164 64.0104 15.7895 65.2711 15.7895C67.3209 15.7895 67.613 16.9023 67.613 17.6307V17.8026C63.1884 17.8026 60.4129 19.2999 60.4129 22.3834C60.4129 24.2671 61.8447 26.0223 64.3076 26.0223C65.8245 26.0223 67.075 25.4234 67.8642 24.4806H67.9513C67.9513 24.4806 68.472 26.5788 71.2475 25.7654C71.1173 24.9095 71.0732 23.9667 71.0732 22.8539L70.9861 18.6049M2.23328 9.75293L5.57458 23.2828C6.09525 25.5084 7.09149 26.3228 9.87932 25.7664L11.6576 18.5311L12.6989 13.6498H12.742C12.9593 15.491 13.2626 16.7859 13.6091 18.5735L14.7365 23.5832C15.126 25.2959 16.1683 26.4088 18.9008 25.8089L23.2056 9.7964H19.7351L18.2592 16.7323L17.2179 22.17H17.1748L16.2216 16.8608L14.7047 9.7964H11.0918L9.44372 16.6898L8.27221 22.256H8.22917C7.91556 20.3093 7.5684 18.3679 7.18783 16.4329L5.88617 9.7964L2.2425 9.75392M29.7887 21.4851C29.7887 21.6995 29.7887 21.9565 29.7016 22.1275C29.4413 22.9409 28.5742 23.6692 27.4898 23.6692C26.5674 23.6692 25.8417 23.1553 25.8417 22.085C25.8417 20.4158 27.7071 19.9868 29.7877 19.9868L29.7887 21.4851ZM33.0849 18.616C33.0849 15.8846 31.9134 13.4768 27.9233 13.4768C25.8735 13.4768 24.2366 14.0333 23.3685 14.5472L24.0194 16.7303C24.8434 16.2164 26.1 15.7895 27.3607 15.7895C29.4105 15.7895 29.7027 16.9023 29.7027 17.6307V17.8026C25.278 17.8026 22.5025 19.2999 22.5025 22.3834C22.5025 24.2671 23.9343 26.0223 26.3972 26.0223C27.9141 26.0223 29.1646 25.4234 29.9538 24.4806H30.0409C30.0409 24.4806 30.5615 26.5788 33.3371 25.7654C33.2069 24.9095 33.1628 23.9667 33.1628 22.8539V18.6049M38.5397 22.3844V9.75392H35.2435V25.7664H38.5397V22.3844Z" fill="#00A1FF"/>
<path d="M81.7097 9.75396V21.5701C81.7097 23.1968 82.0131 24.3522 82.6629 25.0381C83.2266 25.637 84.1798 26.0224 85.3524 26.0224C86.3055 26.0224 87.3038 25.8504 87.7384 25.6784L87.6954 23.1523C87.3469 23.2383 86.9574 23.2808 86.4378 23.2808C85.3103 23.2808 84.9209 22.5524 84.9209 21.0977V16.5594H87.7835V13.4768H84.9209V9.70944H81.7108M73.1648 13.7359V25.7664H76.5471V19.6014C76.5471 19.2575 76.5471 18.959 76.6342 18.6909C76.8946 17.4061 77.8918 16.5928 79.3237 16.5928C79.7132 16.5928 80.0176 16.6353 80.3209 16.6788V13.5102C80.0606 13.4678 79.8874 13.4242 79.583 13.4242C78.3254 13.4242 76.8505 14.2376 76.2417 15.9503H76.1546V13.6812H73.1618M40.8926 13.7359V25.7664H44.1888V18.7021C44.1888 18.3581 44.2319 18.0172 44.3631 17.7177C44.6234 16.9893 45.3163 16.176 46.3586 16.176C47.7033 16.176 48.3101 17.2888 48.3101 18.9074V25.7563H51.6063V18.6059C51.6063 18.3065 51.6494 17.921 51.7365 17.6216C51.9968 16.8082 52.7337 16.1649 53.732 16.1649C55.0767 16.1649 55.7276 17.2776 55.7276 19.1613V25.7553H59.0238V18.6484C59.0238 14.9235 57.1153 13.4253 54.9466 13.4253C54.1063 13.4174 53.2803 13.6397 52.5605 14.0676C51.9968 14.4116 51.4761 14.9235 50.9985 15.5649H50.9555C50.4348 14.2801 49.2202 13.4242 47.6142 13.4242C45.5335 13.4242 44.6214 14.4521 44.0576 15.3504H44.0146V13.7237H40.8916" fill="#00A1FF"/>
</svg>
